<svg width="115" height="32" viewBox="0 0 115 32" fill="none" xmlns="http://www.w3.org/2000/svg">
<path fill-rule="evenodd" clip-rule="evenodd" d="M9.6438 0.196291C6.9692 0.313766 4.651 0.950316 2.77911 2.76483C0.90068 4.58888 0.254896 6.85449 0.133918 9.43101C0.0587146 11.0392 -0.381033 23.1884 0.894143 26.3745C1.75407 28.524 3.44772 30.1767 5.67601 31.0164C6.71577 31.4102 7.90269 31.6767 9.6438 31.7544C24.2021 32.3958 29.5986 32.0466 31.8743 26.3745C32.2781 25.3648 32.5561 24.2104 32.6329 22.5197C33.2983 8.31153 32.525 5.23182 29.9878 2.76483C27.9753 0.81061 25.608 -0.519673 9.6438 0.196291ZM9.77782 28.897C8.18385 28.8271 7.31904 28.5686 6.74194 28.3511C5.2902 27.8018 4.19976 26.7447 3.63901 25.3397C2.66792 22.9188 2.99 11.4204 3.07664 9.55987C3.16165 7.73741 3.54093 6.0718 4.86188 4.78593C6.49672 3.19841 8.60891 2.42039 22.9906 3.05222C24.8674 3.13477 26.5824 3.50322 27.9066 4.78593C29.5414 6.37343 30.3523 8.44539 29.6918 22.3916C29.6199 23.9395 29.3534 24.7793 29.1295 25.3397C27.6499 29.0307 24.2462 29.5431 9.77782 28.897ZM23.1492 7.50051C23.1492 8.55145 24.0271 9.40602 25.111 9.40602C26.1949 9.40602 27.0745 8.55145 27.0745 7.50051C27.0745 6.44959 26.1949 5.59577 25.111 5.59577C24.0271 5.59577 23.1492 6.44959 23.1492 7.50051ZM7.98932 15.9746C7.98932 20.4768 11.7478 24.1269 16.3842 24.1269C21.0206 24.1269 24.7792 20.4768 24.7792 15.9746C24.7792 11.4724 21.0206 7.8246 16.3842 7.8246C11.7478 7.8246 7.98932 11.4724 7.98932 15.9746ZM10.9353 15.9746C10.9353 13.0536 13.3745 10.6837 16.3842 10.6837C19.394 10.6837 21.8332 13.0536 21.8332 15.9746C21.8332 18.8972 19.394 21.2679 16.3842 21.2679C13.3745 21.2679 10.9353 18.8972 10.9353 15.9746Z" fill="white"/>
<path d="M84.0544 0.0522461H113.127C114.112 0.0522461 115 0.916405 115 1.87573V30.1765C115 31.1359 114.112 32 113.127 32H84.0544C83.0689 32 82.1812 31.1359 82.1812 30.1765V1.87573C82.1812 0.916405 83.0689 0.0522461 84.0544 0.0522461ZM105.487 17.9908H110.021L110.218 13.7698H105.487V10.6524C105.487 9.45362 105.733 8.78132 107.31 8.78132H110.069L110.169 4.84733C110.169 4.84733 108.937 4.65546 107.163 4.65546C102.827 4.65546 100.905 7.29399 100.905 10.1244V13.7698H97.7029V17.9908H100.905V29.6946H105.487V17.9908Z" fill="white"/>
<path d="M57.5047 0.484863C54.3538 0.484863 51.2734 1.39446 48.6534 3.09862C46.0334 4.80279 43.9913 7.225 42.7855 10.0589C41.5796 12.8928 41.2641 16.0113 41.8788 19.0197C42.4936 22.0283 44.011 24.7916 46.2391 26.9608C48.4672 29.1297 51.306 30.6068 54.3966 31.2052C57.487 31.8037 60.6905 31.4964 63.6017 30.3226C66.5129 29.1487 69.0011 27.161 70.7518 24.6105C72.5024 22.0601 73.4368 19.0616 73.4368 15.994C73.4368 11.8808 71.7581 7.93594 68.7705 5.0274C65.7826 2.11885 61.7301 0.484863 57.5047 0.484863ZM65.3314 11.1086L62.7225 23.1089C62.5233 23.9619 62.0055 24.1557 61.2687 23.768L57.2857 20.8988L55.2942 22.7018C55.2004 22.821 55.0799 22.9179 54.9419 22.9852C54.8039 23.0523 54.6519 23.0879 54.4976 23.0895L54.7764 19.2122L62.1449 12.7177C62.4835 12.4463 62.1449 12.2912 61.667 12.5626L52.6255 18.0878L48.6425 16.8858C47.7862 16.6338 47.7663 16.0522 48.8218 15.6645L64.1763 9.84853C64.9331 9.63528 65.5703 10.0618 65.3314 11.1086Z" fill="white"/>
</svg>
