<svg width="128" height="128" viewBox="0 0 128 128" fill="none" xmlns="http://www.w3.org/2000/svg">
<path d="M128 0H0V128H128V0Z" fill="white"/>
<path fill-rule="evenodd" clip-rule="evenodd" d="M69.3333 37.3333C69.3333 34.3878 66.9456 32 64 32C61.0544 32 58.6667 34.3878 58.6667 37.3333V37.8741C50.1581 39.676 44.6667 45.7913 44.6667 53.3333C44.6667 60.8752 50.158 66.9904 58.6667 68.7925V78.8747C56.232 77.84 54.5013 76.2875 54.408 76.1989C52.323 74.1461 48.9685 74.1557 46.8956 76.2288C44.8128 78.3115 44.8127 81.6885 46.8955 83.7712C48.2942 85.168 49.9786 86.3211 51.6874 87.2971C53.5013 88.3339 55.864 89.4053 58.6667 90.0539V90.6667C58.6667 93.6123 61.0544 96 64 96C66.9456 96 69.3333 93.6123 69.3333 90.6667V90.1259C77.8421 88.3237 83.3333 82.2085 83.3333 74.6667C83.3333 67.1248 77.8421 61.0096 69.3333 59.2075V48.8796C71.8544 49.808 72.9733 51.0995 73.112 51.2597C74.8805 53.5477 78.1664 54.0165 80.5035 52.289C82.872 50.5382 83.3733 47.1988 81.6224 44.83C81.6224 44.83 81.6251 44.8339 81.6187 44.8252C81.2779 44.3661 80.9205 43.9547 80.2811 43.3355C79.5243 42.6025 78.4373 41.6887 76.9904 40.7954C75.048 39.5958 72.5061 38.4653 69.3333 37.8395V37.3333ZM10.6667 64C10.6667 34.5448 34.5448 10.6667 64 10.6667C93.4549 10.6667 117.333 34.5448 117.333 64C117.333 93.4549 93.4549 117.333 64 117.333C34.5448 117.333 10.6667 93.4549 10.6667 64Z" fill="#E63946"/>
<path fill-rule="evenodd" clip-rule="evenodd" d="M70.0011 70.6437C69.6971 70.4672 69.3333 70.6997 69.3333 71.0517V78.2821C69.3333 78.6341 69.6971 78.8667 70.0011 78.6896C72.1067 77.4656 72.6661 75.68 72.6661 74.6667C72.6661 73.6539 72.1067 71.8677 70.0011 70.6437Z" fill="#E63946"/>
<path fill-rule="evenodd" clip-rule="evenodd" d="M58.6667 49.8117C58.6667 49.4159 58.2576 49.1545 57.9184 49.358C55.8789 50.5802 55.3333 52.3334 55.3333 53.3333C55.3333 54.3333 55.8789 56.0864 57.9184 57.3088C58.2576 57.512 58.6667 57.2507 58.6667 56.8549V49.8117Z" fill="#E63946"/>
</svg>
