<svg width="45" height="45" viewBox="0 0 45 45" fill="none" xmlns="http://www.w3.org/2000/svg">
<path d="M3.3259 42.6572L3.28827 42.6312C1.79193 41.5993 1 40.1453 1 38.352V6.032C1 4.20537 1.78536 2.73712 3.30797 1.73954L3.34694 1.71401L3.38811 1.69221C4.23842 1.24205 5.12316 1 6.032 1C6.80199 1 7.55139 1.19371 8.27092 1.55342C8.27101 1.55347 8.27111 1.55352 8.27121 1.55357L40.5905 17.6812L40.6013 17.6866L40.6119 17.6922C41.472 18.1476 42.1601 18.7606 42.6122 19.5519C43.0439 20.3072 43.2692 21.1687 43.3186 22.1074C43.3719 23.1205 43.1291 24.0612 42.576 24.8907C42.0635 25.6595 41.4091 26.2666 40.6146 26.6904L40.6026 26.6967L40.5905 26.7028L8.27121 42.8304L3.3259 42.6572ZM3.3259 42.6572L3.36574 42.6796M3.3259 42.6572L3.36574 42.6796M3.36574 42.6796C4.19498 43.146 5.08873 43.384 6.032 43.384M3.36574 42.6796L6.032 43.384M6.032 43.384C6.80184 43.384 7.5511 43.1904 8.2705 42.8308L6.032 43.384Z" fill="white" stroke="black" stroke-width="2"/>
</svg>
